<svg width="995" height="359" viewBox="0 0 995 359" fill="none" xmlns="http://www.w3.org/2000/svg">
	<g clip-path="url(#clip0_75_289)">
<path d="M80.19 91.61C83.83 91.61 98.77 96.05 101.4 97.47C102.81 98.28 103.82 99.69 103.82 101.31C103.82 101.71 103.62 102.52 103.62 102.52C96.75 121.91 83.22 177.86 76.96 228.36C76.76 230.38 75.14 231.59 73.32 231.59C70.09 231.59 59.99 228.76 56.96 227.55C55.14 226.74 53.73 225.13 53.53 222.3L53.13 215.63C53.13 214.62 52.73 213.61 52.12 213.61C51.72 213.61 51.31 213.81 50.71 214.62C44.25 224.11 36.57 232.19 30.11 232.19C15.97 232.19 0.0100098 213.81 0.0100098 195.63C0.0100098 162.5 16.98 128.57 42.43 128.57C47.08 128.57 53.34 130.99 59.8 134.43C59.8 134.43 60.81 135.04 61.42 135.04C62.63 135.04 63.44 134.23 63.84 132.41C68.08 114.84 72.12 101.71 75.56 94.43C76.37 92.81 78.19 91.6 80.21 91.6L80.19 91.61ZM52.52 189.18C54.74 178.68 58.58 159.69 58.58 158.07C58.58 156.66 57.97 155.44 56.36 154.84C53.53 153.83 50.91 153.22 49.29 153.22C36.16 153.22 28.89 180.89 28.89 194.83C28.89 200.69 30.3 204.73 32.12 204.73C36.36 204.73 44.04 199.28 49.9 193.82C51.52 192.41 52.32 190.59 52.53 189.17L52.52 189.18Z" fill="#CC4334"/>
	<path d="M125.64 121.11C137.76 121.11 145.23 113.43 145.23 102.73C145.23 90.81 133.51 85.96 123.82 85.96C121.8 85.96 118.77 86.97 117.36 87.98C113.12 91.41 108.67 96.87 108.67 103.94C108.67 113.23 113.92 121.11 125.64 121.11Z" fill="#CC4334"/>
	<path d="M191.9 222.71L191.29 214.23C191.29 213.22 190.89 212.61 190.48 212.61C190.07 212.61 189.67 213.01 189.27 213.62C182.2 224.93 174.12 232.2 167.86 232.2C153.52 232.2 137.56 214.63 137.56 195.64C137.56 161.91 153.72 128.58 181.6 128.58C191.5 128.58 211.7 136.46 226.24 145.95C227.65 146.76 228.66 148.37 228.66 150.19C228.66 150.8 228.26 152.41 228.26 152.41C220.18 181.09 217.35 212.4 216.95 228.56C216.75 230.38 215.33 231.79 213.52 231.79C208.27 231.79 197.16 228.76 195.54 227.95C192.91 226.54 192.11 224.72 191.9 222.7V222.71ZM190.08 189.18C192.3 178.68 196.14 159.69 196.14 158.07C196.14 156.66 195.53 155.44 193.92 154.84C191.09 153.83 188.47 153.22 186.85 153.22C173.72 153.22 166.45 180.89 166.45 194.83C166.45 200.69 167.86 204.73 169.68 204.73C173.92 204.73 181.6 199.28 187.46 193.82C189.08 192.41 189.88 190.59 190.09 189.17L190.08 189.18Z" fill="#CC4334"/>
	<path d="M298.14 128.98C308.24 128.98 322.78 143.73 322.78 153.83C322.78 162.92 315.1 205.14 308.84 228.77C308.23 230.39 306.42 232 304.6 232C299.95 232 288.04 227.56 283.59 225.13C281.97 224.12 281.17 222.3 281.17 220.48C281.17 219.67 281.37 218.66 281.37 218.66C281.37 218.66 291.67 176.24 291.67 163.31C291.67 159.88 291.06 157.65 289.65 157.65C286.62 157.65 277.93 162.5 270.46 170.17C268.44 172.19 267.43 174.61 267.03 176.63C263.39 194.81 258.95 217.43 256.53 228.54C256.13 230.36 254.51 231.77 252.69 231.77C248.25 231.77 234.91 227.33 232.09 225.91C230.27 224.9 229.46 223.28 229.46 221.47C229.46 220.06 241.58 148.55 244 131.99C244.4 129.97 246.22 128.56 248.04 128.56C250.26 128.56 263.59 130.98 267.43 132.6C269.65 133.61 271.07 135.83 271.07 138.05C271.07 140.07 271.27 143.1 271.27 146.13C271.27 147.34 271.67 147.95 272.08 147.95C272.69 147.95 273.49 146.94 273.49 146.94C281.57 136.64 290.86 128.96 298.13 128.96L298.14 128.98Z" fill="#CC4334"/>
	<path d="M371.87 128.58C380.96 128.58 403.18 137.27 416.11 145.55C417.52 146.56 418.33 148.38 418.33 150.2C418.33 151.01 418.13 151.82 418.13 151.82C413.89 169.19 408.43 202.72 403.59 227.16C401.17 239.68 391.47 268.97 361.58 268.97C354.31 268.97 341.38 264.93 335.12 260.28C333.3 259.07 332.7 257.65 332.7 256.04C332.7 253.62 335.53 243.92 336.54 241.7C337.15 240.29 338.36 239.48 339.77 239.48C340.17 239.48 340.98 239.68 341.39 239.88C347.45 242.51 352.7 243.52 356.54 243.52C373.1 243.52 378.15 225.14 378.15 216.65C378.15 215.64 377.75 215.03 377.34 215.03C376.93 215.03 376.73 215.23 376.13 216.04C370.07 224.52 363 230.79 357.14 230.79C342.8 230.79 327.45 214.02 327.45 194.43C327.45 160.49 344.62 128.58 371.89 128.58H371.87ZM379.95 189.18C382.17 178.68 386.01 159.69 386.01 158.07C386.01 156.66 385.4 155.44 383.79 154.84C380.96 153.83 378.34 153.22 376.72 153.22C363.59 153.22 356.32 180.89 356.32 194.83C356.32 200.69 357.73 204.73 359.55 204.73C363.79 204.73 371.47 199.28 377.33 193.82C378.95 192.41 379.75 190.59 379.95 189.17V189.18Z" fill="#CC4334"/>
	<path d="M508.63 169.38C508.63 187.36 497.72 232.2 465.2 232.2C456.11 232.2 438.94 227.15 429.65 217.25C423.99 211.19 421.17 201.9 421.17 190.59C421.17 167.56 434.7 128.38 462.58 128.38C473.08 128.38 492.07 136.26 500.76 144.94C506.01 150.39 508.44 160.09 508.64 168.37V169.38H508.63ZM479.13 166.96C479.13 157.87 476.3 151.81 470.85 151.81C459.74 151.81 450.25 178.27 450.25 194.43C450.25 202.51 452.88 208.37 458.73 208.37C471.05 208.37 479.13 182.31 479.13 166.96Z" fill="#CC4334"/>
	<path d="M563.97 173.42C563.97 171.8 566.6 162.11 566.6 158.27C566.6 154.43 565.59 152.01 562.76 152.01C553.87 152.01 542.56 173.22 542.56 189.58C542.56 199.48 547 205.54 554.48 205.54C561.55 205.54 569.23 202.71 574.88 199.48C574.88 199.48 575.69 199.08 576.5 199.08C577.91 199.08 578.72 199.69 579.53 201.1C580.94 203.73 584.78 212.01 584.78 214.84C584.78 217.06 583.97 218.68 582.76 219.89C575.49 226.35 565.99 232.21 554.68 232.21C548.01 232.21 529.43 226.76 521.75 217.06C516.3 210.19 513.47 201.51 513.47 190.4C513.47 162.12 532.05 128.39 555.08 128.39C562.96 128.39 594.06 139.1 594.06 155.46C594.06 160.31 590.22 170 588.2 173.24C587.19 174.86 585.57 176.07 583.35 176.27C580.12 176.47 571.63 176.47 566.99 176.47C565.17 176.27 563.96 175.06 563.96 173.44L563.97 173.42Z" fill="#CC4334"/>
	<path d="M684.56 169.38C684.56 187.36 673.65 232.2 641.13 232.2C632.04 232.2 614.87 227.15 605.58 217.25C599.92 211.19 597.1 201.9 597.1 190.59C597.1 167.56 610.63 128.38 638.51 128.38C649.01 128.38 668 136.26 676.69 144.94C681.94 150.39 684.37 160.09 684.57 168.37V169.38H684.56ZM655.07 166.96C655.07 157.87 652.24 151.81 646.79 151.81C635.68 151.81 626.19 178.27 626.19 194.43C626.19 202.51 628.82 208.37 634.67 208.37C646.99 208.37 655.07 182.31 655.07 166.96Z" fill="#CC4334"/>
	<path d="M755.47 128.98C765.57 128.98 780.11 143.73 780.11 153.83C780.11 162.92 772.43 205.14 766.17 228.77C765.56 230.39 763.75 232 761.93 232C757.28 232 745.37 227.56 740.92 225.13C739.3 224.12 738.5 222.3 738.5 220.48C738.5 219.67 738.7 218.66 738.7 218.66C738.7 218.66 749 176.24 749 163.31C749 159.88 748.39 157.65 746.98 157.65C743.95 157.65 735.26 162.5 727.79 170.17C725.77 172.19 724.76 174.61 724.36 176.63C720.72 194.81 716.28 217.43 713.86 228.54C713.46 230.36 711.84 231.77 710.02 231.77C705.58 231.77 692.24 227.33 689.42 225.91C687.6 224.9 686.79 223.28 686.79 221.47C686.79 220.06 698.91 148.55 701.33 131.99C701.73 129.97 703.55 128.56 705.37 128.56C707.59 128.56 720.92 130.98 724.76 132.6C726.98 133.61 728.4 135.83 728.4 138.05C728.4 140.07 728.6 143.1 728.6 146.13C728.6 147.34 729 147.95 729.41 147.95C730.02 147.95 730.82 146.94 730.82 146.94C738.9 136.64 748.19 128.96 755.46 128.96L755.47 128.98Z" fill="#CC4334"/>
	<path d="M811.82 215.44C811.82 225.34 805.56 232.61 795.26 232.61C784.96 232.61 780.31 224.93 780.31 216.65C780.31 209.58 782.94 205.94 787.38 201.9C788.59 200.69 791.02 199.68 793.04 199.68C802.13 199.68 811.83 204.73 811.83 215.44H811.82Z" fill="#CC4334"/>
	<path d="M914.84 139.08C914.84 139.89 914.44 141.1 914.44 141.1C905.35 170.79 900.5 210.59 899.9 228.56C899.9 230.38 898.49 231.99 896.67 231.99C892.43 231.99 882.93 229.36 880.11 228.15C878.09 227.34 876.68 225.52 876.07 222.7C875.67 221.08 875.46 216.24 875.26 213C875.26 211.59 874.86 210.78 874.25 210.78C873.64 210.78 873.04 211.99 873.04 211.99C865.77 224.11 856.68 232.39 849.2 232.39C837.28 232.39 821.53 216.23 821.53 200.27C821.53 175.63 830.22 145.53 835.27 133.01C835.88 131.39 837.49 129.98 839.31 129.98C842.14 129.98 855.07 135.03 859.71 137.66C861.12 138.47 862.13 139.88 862.13 141.5C862.13 142.91 861.73 144.13 861.73 144.13C857.69 156.05 850.01 187.16 850.01 199.07C850.01 202.1 850.41 203.92 851.63 203.92C856.68 203.92 866.17 197.05 872.84 188.37C874.05 186.75 874.66 185.34 875.06 182.92C877.69 164.94 882.94 143.33 886.57 132.83C887.18 131.01 888.99 129.6 891.01 129.6C894.04 129.6 905.76 132.83 911.82 135.46C913.44 136.07 914.85 137.48 914.85 139.1L914.84 139.08Z" fill="#CC4334"/>
	<path d="M950.39 128.58C961.5 128.58 994.83 138.88 994.83 153.83C994.83 159.08 990.79 167.16 989.17 169.38C987.55 171.6 985.53 172.21 983.72 172.41H968.57C966.55 172.41 965.54 171 965.54 169.78C965.54 168.16 967.56 162.91 967.56 158.87C967.56 153.42 965.14 150.59 962.11 150.59C955.24 150.59 949.18 161.9 949.18 167.36C949.18 181.3 987.56 178.07 987.56 201.3C987.56 215.84 973.22 232.41 952.61 232.41C940.49 232.41 922.71 226.55 916.25 220.69C914.43 219.07 914.03 217.66 914.03 216.65C914.03 214.02 916.45 205.14 918.27 201.3C919.08 199.48 919.89 198.88 921.1 198.88C922.31 198.88 923.12 199.69 923.52 199.69C930.59 203.53 940.49 208.78 948.77 208.78C953.42 208.78 957.66 207.16 958.06 203.93C958.06 195.45 919.07 194.44 919.07 168.18C919.07 152.02 933.82 128.59 950.38 128.59L950.39 128.58Z" fill="#CC4334"/>
	<path d="M135.94 137.26C135.94 145.34 122.41 214.63 119.58 227.76C119.43 228.42 119.27 229.11 119.1 229.8C119.07 229.8 119.04 229.8 119.01 229.81C115.81 243.38 105.51 268.96 77.57 268.96C70.3 268.96 57.37 264.92 51.11 260.28C49.29 259.07 48.69 257.65 48.69 256.04C48.69 253.61 51.52 243.92 52.53 241.69C53.13 240.28 54.34 239.47 55.76 239.47C56.16 239.47 56.97 239.67 57.37 239.88C63.43 242.5 68.69 243.51 72.52 243.51C76.77 243.51 80.89 242.19 84.22 239.53C85.73 238.33 87.04 236.9 88.17 235.34C90.49 232.14 91.07 228.16 91.76 224.37C92.56 219.98 93.36 215.58 94.14 211.18C95.44 203.87 96.69 196.56 97.94 189.25C99.28 181.39 100.6 173.53 101.93 165.67C103.12 158.61 104.31 151.56 105.54 144.51C106.23 140.55 106.86 136.56 107.66 132.61C108.07 130.59 109.88 129.17 112.11 129.17C114.93 129.17 127.26 131.19 132.71 132.61C134.53 133.21 135.94 135.23 135.94 137.25V137.26Z" fill="#CC4334"/>
	</g>
	<defs>
	<clipPath id="clip0_75_289">
	<rect width="994.83" height="358.64" fill="white"/>
	</clipPath>
	</defs>
</svg>
